<?xml version="1.0" encoding="UTF-8"?>
<svg id="Ebene_2" data-name="Ebene 2" xmlns="http://www.w3.org/2000/svg" viewBox="0 0 256 256.32">
  <defs>
    <style>
      .cls-1 {
        fill: #0a1349;
      }

      .cls-2 {
        fill: #b734ae;
      }

      .cls-3 {
        fill: #fff;
      }

      .cls-4 {
        fill: #429ecc;
      }

      .cls-5 {
        fill: #0f3a0f;
      }

      .cls-6 {
        fill: #3387a8;
      }

      .cls-7 {
        fill: #2b0424;
      }

      .cls-8 {
        fill: #2982a5;
      }

      .cls-9 {
        fill: #35b74e;
      }

      .cls-10 {
        fill: #6b9ac9;
      }
    </style>
  </defs>
  <g id="Ebene_1-2" data-name="Ebene 1">
    <rect class="cls-10" width="256" height="256"/>
    <g>
      <rect class="cls-6" x="92.6" y="181.53" width="70.79" height="70.79" rx="8" ry="8"/>
      <path class="cls-1" d="M155.4,185.53c2.17,0,4,1.83,4,4v54.79c0,2.17-1.83,4-4,4h-54.79c-2.17,0-4-1.83-4-4v-54.79c0-2.17,1.83-4,4-4h54.79M155.4,177.53h-54.79c-6.6,0-12,5.4-12,12v54.79c0,6.6,5.4,12,12,12h54.79c6.6,0,12-5.4,12-12v-54.79c0-6.6-5.4-12-12-12h0Z"/>
    </g>
    <g>
      <path class="cls-4" d="M129.54,252c-47.22,0-69.23-3.66-78.49-13.04-7.67-7.78-7.5-20.78-7.24-40.47.05-3.85.1-7.83.1-12.11,0-51.73,38.43-93.81,85.67-93.81s85.67,42.08,85.67,93.81c0,3.58.03,6.98.06,10.23.18,20.56.3,34.15-7.68,42.2-9.41,9.49-31.3,13.19-78.08,13.19Z"/>
      <path class="cls-1" d="M129.58,96.57c45.03,0,81.67,40.29,81.67,89.81,0,3.6.03,6.99.06,10.27.17,19.56.29,32.48-6.52,39.35-8.45,8.53-30.25,12-75.24,12s-67.34-3.43-75.64-11.85c-6.5-6.59-6.34-18.93-6.09-37.61.05-3.86.1-7.85.1-12.16,0-49.52,36.64-89.81,81.67-89.81M129.58,88.57c-49.52,0-89.67,43.79-89.67,97.81s-8.6,69.62,89.63,69.62,89.7-15.6,89.7-69.62-40.15-97.81-89.67-97.81h0Z"/>
    </g>
    <path d="M117.3,170.9c0,21.05-12.85,11.97-28.7,11.97s-28.7,9.08-28.7-11.97,16.21-47.88,28.7-38.12c13.44,10.5,28.7,17.07,28.7,38.12Z"/>
    <path d="M200.62,170.9c0,21.05-12.85,11.97-28.7,11.97s-28.7,9.08-28.7-11.97,13.58-28.13,28.7-38.12c13.22-8.74,28.7,17.07,28.7,38.12Z"/>
    <g>
      <path class="cls-9" d="M123.49,113.19c-2.63-1.45-11.16-12.76-19.7-31.38-8.62-18.79-12.71-35.44-10.67-43.45,3.77-14.82,19.66-24.78,39.55-24.78,5,0,10.06.65,15.06,1.92,25.27,6.43,41.88,27.15,37.04,46.18-2.03,7.98-13.03,20.24-29.42,32.81-15.43,11.83-28.45,18.47-31.86,18.7Z"/>
      <path class="cls-5" d="M132.67,9.58v8s0,0,0,0c4.66,0,9.4.6,14.07,1.79,11.57,2.94,21.5,9.11,27.95,17.37,5.98,7.65,8.18,16.15,6.2,23.95-1.36,5.36-9.16,16.01-26.96,29.84-13.25,10.29-24.82,16.63-29.42,18.27-3.25-3.39-10.48-13.92-17.76-30.16-7.65-17.07-11.48-32.5-9.75-39.3,3.31-13.02,17.65-21.76,35.67-21.77v-8M132.67,9.58c-21.11,0-39.1,10.78-43.42,27.79-5.4,21.21,24.47,77.48,33.31,79.73.22.06.47.08.76.08,10.07,0,60.08-33.9,65.33-54.52,5.4-21.21-12.48-44.06-39.93-51.05-5.43-1.38-10.84-2.04-16.05-2.04h0Z"/>
    </g>
    <g>
      <path class="cls-2" d="M128.69,239.44c-6.4-.19-18.37-3.44-29.8-8.07-13.59-5.51-19.73-10.16-20.41-11.8-3.93-11.92-3.37-21.51,1.68-28.49,9.98-13.8,35.71-15.86,50.16-15.86,24.69,0,41.07,5,48.69,14.87,5.45,7.06,6.52,17.06,3.2,29.74-.34,1.31-5.33,6.09-24,12.38-13.12,4.42-26.19,7.24-29.42,7.24h-.09Z"/>
      <path class="cls-7" d="M130.32,179.21c23.06,0,38.8,4.6,45.52,13.32,4.57,5.92,5.46,14.56,2.65,25.68-1.37,1.48-7.61,5.7-23.73,10.92-12.81,4.15-23.72,6.31-25.96,6.32-5.59-.17-16.39-3.05-26.87-7.16-11.81-4.64-18.26-8.79-19.85-10.54-3.36-10.51-2.93-18.47,1.31-24.33,6.62-9.16,23.29-14.21,46.92-14.21M130.32,171.21c-30.76,0-69.2,8.52-55.64,49.63,2.6,7.88,38.98,22.15,53.88,22.6.07,0,.14,0,.21,0,8.17,0,54.6-12.32,57.3-22.6,11.02-42.02-25-49.63-55.76-49.63h0Z"/>
    </g>
    <circle class="cls-3" cx="83.34" cy="149.19" r="13.58"/>
    <circle class="cls-3" cx="176.85" cy="145.43" r="13.58"/>
    <path class="cls-3" d="M81.58,186.83s28.08,25.02,27.85,25.93,6.11-33.85,6.11-33.85l-33.96,7.92Z"/>
    <path class="cls-3" d="M145.33,177.53s11.02,35.96,10.36,36.61,22.79-25.77,22.79-25.77l-33.15-10.84Z"/>
    <path class="cls-8" d="M47.74,205.17s-.34,18.93,2.46,24.45,5.09,11.5,17.75,13.81,36.34,5.12,51.37,4.7,15.37.04,15.37.04c0,0-33.49-3.85-42.93-5.79-12.11-2.49-26.13-9.47-31.84-16.75-8.15-10.4-11.07-19.17-11.41-29.79s-.78-13.57-.78-13.57v22.9Z"/>
    <path class="cls-8" d="M211.59,205.69s.34,18.93-2.46,24.45-5.09,11.5-17.75,13.81c-12.65,2.32-36.34,5.12-51.37,4.7s-15.37.04-15.37.04c0,0,33.49-3.85,42.93-5.79,12.11-2.49,26.13-9.47,31.84-16.75,8.15-10.4,11.07-19.17,11.41-29.79s.78-13.57.78-13.57v22.9Z"/>
  </g>
</svg>