<?xml version="1.0" encoding="UTF-8" standalone="no"?>
<svg
   width="16"
   height="16"
   viewBox="0 0 100 100"
   fill="none"
   version="1.1"
   id="svg3"
   xmlns="http://www.w3.org/2000/svg"
   xmlns:svg="http://www.w3.org/2000/svg">
  <path
     d="m 17.397325,29.869786 h 44.864412 c 9.398596,0 15.440551,-4.699298 15.440551,-11.412581 0,-6.041955 -4.699298,-10.741253 -10.741252,-10.741253 -5.370629,0 -9.3986,3.356641 -10.741257,8.05594"
     stroke="#ff5555"
     stroke-width="10"
     stroke-linecap="round"
     id="path1" />
  <path
     d="M 5.6849618,49.978702 H 81.559802 c 7.384611,0 12.755236,4.699298 12.755236,10.741254 0,6.713282 -5.370625,11.412581 -12.083908,11.412581 -6.041955,0 -10.741253,-3.356642 -12.083909,-8.727268"
     stroke="#ff5555"
     stroke-width="10"
     stroke-linecap="round"
     id="path2" />
  <path
     d="m 17.397325,70.181334 h 20.92995 c 9.398597,0 15.440551,4.699298 15.440551,11.412581 0,6.041955 -4.699297,10.741252 -10.741253,10.741252 -5.370625,0 -9.398597,-3.356641 -10.741252,-8.055938"
     stroke="#ff5555"
     stroke-width="10"
     stroke-linecap="round"
     id="path3" />
</svg>
