<?xml version="1.0" encoding="UTF-8" standalone="no"?>
<svg
   width="32"
   height="32"
   viewBox="0 0 100 100"
   fill="none"
   shape-rendering="geometricPrecision"
   version="1.1"
   id="svg3"
   xmlns="http://www.w3.org/2000/svg"
   xmlns:svg="http://www.w3.org/2000/svg">
  <defs
     id="defs3" />
  <path
     d="m 17.397325,29.869786 h 44.864412 c 9.398596,0 15.440551,-4.699298 15.440551,-11.412581 0,-6.041955 -4.699298,-10.741253 -10.741252,-10.741253 -5.370629,0 -9.3986,3.356641 -10.741257,8.05594"
     fill="none"
     stroke="#000000"
     stroke-width="12"
     stroke-linecap="round"
     stroke-linejoin="round"
     id="path1_border" />
  <path
     d="m 17.397325,29.869786 h 44.864412 c 9.398596,0 15.440551,-4.699298 15.440551,-11.412581 0,-6.041955 -4.699298,-10.741253 -10.741252,-10.741253 -5.370629,0 -9.3986,3.356641 -10.741257,8.05594"
     fill="none"
     stroke="#b9dfff"
     stroke-width="8"
     stroke-linecap="round"
     stroke-linejoin="round"
     id="path1" />
  <path
     d="M 7.2167979,50.361597 H 80.468875 c 7.129348,0 12.314327,4.536858 12.314327,10.369962 0,6.481224 -5.184979,11.018083 -11.666204,11.018083 -5.833104,0 -10.369961,-3.240613 -11.666205,-8.425593"
     fill="none"
     stroke="#000000"
     stroke-width="11.5852"
     stroke-linecap="round"
     stroke-linejoin="round"
     id="path2_border" />
  <path
     d="M 7.2167979,50.361597 H 80.468875 c 7.129348,0 12.314327,4.536858 12.314327,10.369962 0,6.481224 -5.184979,11.018083 -11.666204,11.018083 -5.833104,0 -10.369961,-3.240613 -11.666205,-8.425593"
     fill="none"
     stroke="#b9dfff"
     stroke-width="7.72346"
     stroke-linecap="round"
     stroke-linejoin="round"
     id="path2" />
  <path
     d="m 17.397325,70.181334 h 20.92995 c 9.398597,0 15.440551,4.699298 15.440551,11.412581 0,6.041955 -4.699297,10.741252 -10.741253,10.741252 -5.370625,0 -9.398597,-3.356641 -10.741252,-8.055938"
     fill="none"
     stroke="#000000"
     stroke-width="12"
     stroke-linecap="round"
     stroke-linejoin="round"
     id="path3_border" />
  <path
     d="m 17.397325,70.181334 h 20.92995 c 9.398597,0 15.440551,4.699298 15.440551,11.412581 0,6.041955 -4.699297,10.741252 -10.741253,10.741252 -5.370625,0 -9.398597,-3.356641 -10.741252,-8.055938"
     fill="none"
     stroke="#b9dfff"
     stroke-width="8"
     stroke-linecap="round"
     stroke-linejoin="round"
     id="path3" />
</svg>
